<?xml version="1.0" encoding="UTF-8"?>
<svg width="70px" height="70px" viewBox="0 0 70 70" version="1.1" xmlns="http://www.w3.org/2000/svg" xmlns:xlink="http://www.w3.org/1999/xlink">
    <title>编组备份 5 4</title>
    <g id="可用的" stroke="none" stroke-width="1" fill="none" fill-rule="evenodd">
        <g id="Icons" transform="translate(-413.000000, -38.000000)">
            <g id="编组备份-5" transform="translate(413.000000, 38.000000)">
                <rect id="矩形" fill="#7D76E9" x="0" y="0" width="70" height="70" rx="35"></rect>
                <g id="209电话" transform="translate(21.000000, 21.000000)" fill="#FFFFFF" fill-rule="nonzero">
                    <rect id="矩形" opacity="0" x="0" y="0" width="28" height="28"></rect>
                    <path d="M7.721875,12.578125 C9.40625,15.88125 12.11875,18.59375 15.421875,20.278125 L17.98125,17.71875 C18.2875,17.4125 18.76875,17.303125 19.1625,17.434375 C20.475,17.871875 21.896875,18.090625 23.340625,18.090625 C23.975,18.090625 24.5,18.615625 24.5,19.25 L24.5,23.31875 C24.5,23.953125 23.975,24.4781653 23.340625,24.4781653 C12.38125,24.5 3.5,15.61875 3.5,4.659375 C3.5,4.025 4.025,3.5 4.659375,3.5 L8.75,3.5 C9.384375,3.5 9.909375,4.003125 9.909375,4.6375 C9.909375,6.103125 10.15,7.503125 10.565625,8.815625 C10.696875,9.23125 10.609375,9.66875 10.28125,9.996875 L7.721875,12.578125 Z" id="路径"></path>
                </g>
            </g>
        </g>
    </g>
</svg>