<?xml version="1.0" encoding="UTF-8"?>
<svg width="24px" height="24px" viewBox="0 0 24 24" version="1.1" xmlns="http://www.w3.org/2000/svg" xmlns:xlink="http://www.w3.org/1999/xlink">
    <title>编组 7备份 10</title>
    <g id="可用的" stroke="none" stroke-width="1" fill="none" fill-rule="evenodd">
        <g id="Icons" transform="translate(-275.000000, -163.000000)">
            <g id="编组-7备份-10" transform="translate(275.000000, 163.000000)">
                <circle id="椭圆形" stroke="#979797" fill="#FFFFFF" cx="12" cy="12" r="11.5"></circle>
                <g id="下载" transform="translate(4.000000, 4.000000)" fill="#000000" fill-rule="nonzero">
                    <rect id="矩形" opacity="0" x="0" y="0" width="16" height="16"></rect>
                    <path d="M14,13.6666667 C14,13.8507616 13.8507616,14 13.6666667,14 L2.33333333,14 C2.14923841,14 2,13.8507616 2,13.6666667 L2,8 L3.33333333,8 L3.33333333,12.6666667 L12.6666667,12.6666667 L12.6666667,8 L14,8 L14,13.6666667 Z M8.66666667,6.66666667 L8.66666667,2 L7.33333333,2 L7.33333333,6.66666667 L5.68,6.66666667 C5.6160021,6.66675778 5.55770852,6.70348625 5.53000076,6.76117524 C5.50229299,6.81886423 5.51006521,6.88732381 5.55,6.93733333 L7.87,9.83733333 C7.90163279,9.87676187 7.94945058,9.89970341 8,9.89970341 C8.05054942,9.89970341 8.09836721,9.87676187 8.13,9.83733333 L10.45,6.93733333 C10.4899348,6.88732381 10.497707,6.81886423 10.4699992,6.76117524 C10.4422915,6.70348625 10.3839979,6.66675778 10.32,6.66666667 L8.66666667,6.66666667 Z" id="形状"></path>
                </g>
            </g>
        </g>
    </g>
</svg>