<?xml version="1.0" encoding="UTF-8"?>
<svg width="70px" height="70px" viewBox="0 0 70 70" version="1.1" xmlns="http://www.w3.org/2000/svg" xmlns:xlink="http://www.w3.org/1999/xlink">
    <title>编组备份 5</title>
    <g id="可用的" stroke="none" stroke-width="1" fill="none" fill-rule="evenodd">
        <g id="Icons" transform="translate(-59.000000, -38.000000)">
            <g id="编组备份-5" transform="translate(59.000000, 38.000000)">
                <path d="M35,0 C54.3299662,-3.55085719e-15 70,15.6700338 70,35 C70,54.3299662 54.3299662,70 35,70 C15.6700338,70 2.36723813e-15,54.3299662 0,35 C-2.36723813e-15,15.6700338 15.6700338,3.55085719e-15 35,0 Z" id="矩形" fill="#5481DD"></path>
                <g id="email" transform="translate(21.000000, 21.000000)" fill="#FFFFFF" fill-rule="nonzero">
                    <rect id="矩形" opacity="0" x="0" y="0" width="28" height="28"></rect>
                    <path d="M23.3514167,9.35141668 L23.3514167,7 L14,12.8514167 L4.64858332,7 L4.64858332,9.35141668 L14,15.1485834 L23.3514167,9.35141668 Z M23.3514167,4.64858332 C23.9713056,4.64858332 24.5091389,4.8856111 24.9649167,5.35966665 C25.4206945,5.8337222 25.6485834,6.38069442 25.6485834,7.00058332 L25.6485834,21.0005833 C25.6485834,21.6204722 25.4206945,22.1674444 24.9649167,22.6415 C24.5091389,23.1155556 23.9713056,23.3525833 23.3514167,23.3525833 L4.648,23.3525833 C4.02811112,23.3525833 3.49027778,23.1155555 3.0345,22.6415 C2.57872222,22.1674445 2.35083332,21.6204722 2.35083332,21.0005833 L2.35083332,7.00058332 C2.35083332,6.38069444 2.57872222,5.83372222 3.0345,5.35966665 C3.49027778,4.88561108 4.02811112,4.64858332 4.648,4.64858332 L23.3514167,4.64858332 Z" id="形状"></path>
                </g>
            </g>
        </g>
    </g>
</svg>