<?xml version="1.0" encoding="UTF-8"?>
<svg width="40px" height="40px" viewBox="0 0 40 40" version="1.1" xmlns="http://www.w3.org/2000/svg" xmlns:xlink="http://www.w3.org/1999/xlink">
    <title>email</title>
    <g id="可用的" stroke="none" stroke-width="1" fill="none" fill-rule="evenodd">
        <g id="Icons" transform="translate(-63.000000, -241.000000)" fill="#5481DD" fill-rule="nonzero">
            <g id="email" transform="translate(63.000000, 241.000000)">
                <rect id="矩形" opacity="0" x="0" y="0" width="40" height="40"></rect>
                <path d="M33.3591667,13.3591667 L33.3591667,10 L20,18.3591667 L6.64083332,10 L6.64083332,13.3591667 L20,21.6408334 L33.3591667,13.3591667 Z M33.3591667,6.64083332 C34.2447222,6.64083332 35.0130556,6.97944443 35.6641667,7.65666664 C36.3152778,8.33388885 36.6408334,9.11527775 36.6408334,10.0008333 L36.6408334,30.0008333 C36.6408334,30.8863889 36.3152778,31.6677778 35.6641667,32.345 C35.0130556,33.0222222 34.2447222,33.3608333 33.3591667,33.3608333 L6.64,33.3608333 C5.75444445,33.3608333 4.98611112,33.0222222 4.335,32.345 C3.68388888,31.6677778 3.35833332,30.8863889 3.35833332,30.0008333 L3.35833332,10.0008333 C3.35833332,9.11527777 3.68388888,8.33388888 4.335,7.65666664 C4.98611112,6.9794444 5.75444445,6.64083332 6.64,6.64083332 L33.3591667,6.64083332 Z" id="形状"></path>
            </g>
        </g>
    </g>
</svg>