<?xml version="1.0" encoding="UTF-8"?>
<svg width="24px" height="24px" viewBox="0 0 24 24" version="1.1" xmlns="http://www.w3.org/2000/svg" xmlns:xlink="http://www.w3.org/1999/xlink">
    <title>编组 4备份</title>
    <defs>
        <path d="M10.6666667,0 L1.33333333,0 C0.6,0 0,0.6 0,1.33333333 L0,10.6666667 C0,11.4 0.6,12 1.33333333,12 L10.6666667,12 C11.4,12 12,11.4 12,10.6666667 L12,1.33333333 C12,0.6 11.4,0 10.6666667,0 Z M10.6666667,10.6666667 L1.33333333,10.6666667 L1.33333333,1.33333333 L10.6666667,1.33333333 L10.6666667,10.6666667 Z M7.30666667,6.19333333 L5.47333333,8.55333333 L4.16666667,6.98 L2.33333333,9.33333333 L9.66666667,9.33333333 L7.30666667,6.19333333 Z" id="path-1"></path>
    </defs>
    <g id="可用的" stroke="none" stroke-width="1" fill="none" fill-rule="evenodd">
        <g id="Icons" transform="translate(-167.000000, -163.000000)">
            <g id="编组-4备份" transform="translate(167.000000, 163.000000)">
                <circle id="椭圆形" stroke="#979797" fill="#FFFFFF" cx="12" cy="12" r="11.5"></circle>
                <g id="Icon/content/reply" transform="translate(6.000000, 6.000000)">
                    <mask id="mask-2" fill="white">
                        <use xlink:href="#path-1"></use>
                    </mask>
                    <use id="Color" fill="#333333" fill-rule="nonzero" xlink:href="#path-1"></use>
                </g>
            </g>
        </g>
    </g>
</svg>