<?xml version="1.0" encoding="UTF-8"?>
<svg width="32px" height="32px" viewBox="0 0 32 32" version="1.1" xmlns="http://www.w3.org/2000/svg" xmlns:xlink="http://www.w3.org/1999/xlink">
    <title>plus-outlined</title>
    <g id="可用的" stroke="none" stroke-width="1" fill="none" fill-rule="evenodd">
        <g id="Icons" transform="translate(-678.000000, -155.000000)" fill-rule="nonzero">
            <g id="plus-outlined" transform="translate(678.000000, 155.000000)">
                <rect id="矩形" fill="#000000" opacity="0" x="0" y="0" width="32" height="32"></rect>
                <path d="M15.0625,4.75 L16.9375,4.75 C17.1041667,4.75 17.1875,4.83333333 17.1875,5 L17.1875,27 C17.1875,27.1666667 17.1041667,27.25 16.9375,27.25 L15.0625,27.25 C14.8958333,27.25 14.8125,27.1666667 14.8125,27 L14.8125,5 C14.8125,4.83333333 14.8958333,4.75 15.0625,4.75 Z M5.5,14.8125 L26.5,14.8125 C26.6666667,14.8125 26.75,14.8958333 26.75,15.0625 L26.75,16.9375 C26.75,17.1041667 26.6666667,17.1875 26.5,17.1875 L5.5,17.1875 C5.33333333,17.1875 5.25,17.1041667 5.25,16.9375 L5.25,15.0625 C5.25,14.8958333 5.33333333,14.8125 5.5,14.8125 Z" id="形状" fill="#333333"></path>
            </g>
        </g>
    </g>
</svg>