<?xml version="1.0" encoding="UTF-8"?>
<svg width="70px" height="70px" viewBox="0 0 70 70" version="1.1" xmlns="http://www.w3.org/2000/svg" xmlns:xlink="http://www.w3.org/1999/xlink">
    <title>编组备份 5 3</title>
    <g id="可用的" stroke="none" stroke-width="1" fill="none" fill-rule="evenodd">
        <g id="Icons" transform="translate(-295.000000, -39.000000)">
            <g id="编组备份-5" transform="translate(295.000000, 39.000000)">
                <rect id="矩形" fill="#D48D2B" x="0" y="0" width="70" height="70" rx="35"></rect>
                <g id="sms" transform="translate(21.000000, 21.000000)" fill="#FFFFFF" fill-rule="nonzero">
                    <rect id="矩形" opacity="0" x="0" y="0" width="28" height="28"></rect>
                    <path d="M23.3333333,2.33333332 L4.66666668,2.33333332 C3.3775,2.33333332 2.345,3.3775 2.345,4.66666668 L2.33333332,25.6666667 L7,21 L23.3333333,21 C24.6225,21 25.6666667,19.9558333 25.6666667,18.6666667 L25.6666667,4.66666668 C25.6666667,3.3775 24.6225,2.33333332 23.3333333,2.33333332 Z M10.5,12.8333333 L8.16666668,12.8333333 L8.16666668,10.5 L10.5,10.5 L10.5,12.8333333 Z M15.1666667,12.8333333 L12.8333333,12.8333333 L12.8333333,10.5 L15.1666667,10.5 L15.1666667,12.8333333 Z M19.8333333,12.8333333 L17.5,12.8333333 L17.5,10.5 L19.8333333,10.5 L19.8333333,12.8333333 Z" id="形状"></path>
                </g>
            </g>
        </g>
    </g>
</svg>