<?xml version="1.0" encoding="UTF-8"?>
<svg width="70px" height="70px" viewBox="0 0 70 70" version="1.1" xmlns="http://www.w3.org/2000/svg" xmlns:xlink="http://www.w3.org/1999/xlink">
    <title>编组备份 5 2</title>
    <g id="可用的" stroke="none" stroke-width="1" fill="none" fill-rule="evenodd">
        <g id="Icons" transform="translate(-177.000000, -38.000000)">
            <g id="编组备份-5" transform="translate(177.000000, 38.000000)">
                <path d="M35,0 C54.3299662,-3.55085719e-15 70,15.6700338 70,35 C70,54.3299662 54.3299662,70 35,70 C15.6700338,70 2.36723813e-15,54.3299662 0,35 C-2.36723813e-15,15.6700338 15.6700338,3.55085719e-15 35,0 Z" id="矩形" fill="#648E43"></path>
                <g id="chat" transform="translate(21.000000, 21.000000)" fill="#FFFFFF" fill-rule="nonzero">
                    <rect id="矩形" opacity="0" x="0" y="0" width="28" height="28"></rect>
                    <path d="M23.3333333,2.33333332 L4.66666668,2.33333332 C3.38333332,2.33333332 2.33333332,3.38333332 2.33333332,4.66666668 L2.33333332,25.6666667 L7,21 L23.3333333,21 C24.6166666,21 25.6666667,19.95 25.6666667,18.6666667 L25.6666667,4.66666668 C25.6666667,3.38333332 24.6166667,2.33333332 23.3333333,2.33333332 Z M7,10.5 L21,10.5 L21,12.8333333 L7,12.8333333 L7,10.5 Z M16.3333333,16.3333333 L7,16.3333333 L7,14 L16.3333333,14 L16.3333333,16.3333333 Z M21,9.33333332 L7,9.33333332 L7,7 L21,7 L21,9.33333332 Z" id="形状"></path>
                </g>
            </g>
        </g>
    </g>
</svg>