<?xml version="1.0" encoding="UTF-8"?>
<svg width="24px" height="24px" viewBox="0 0 24 24" version="1.1" xmlns="http://www.w3.org/2000/svg" xmlns:xlink="http://www.w3.org/1999/xlink">
    <title>编组 7</title>
    <defs>
        <path d="M11.3333333,6.33333333 L3.66666667,6.33333333 C2.19333333,6.33333333 1,5.14 1,3.66666667 C1,2.19333333 2.19333333,1 3.66666667,1 L12,1 C12.92,1 13.6666667,1.74666667 13.6666667,2.66666667 C13.6666667,3.58666667 12.92,4.33333333 12,4.33333333 L5,4.33333333 C4.63333333,4.33333333 4.33333333,4.03333333 4.33333333,3.66666667 C4.33333333,3.3 4.63333333,3 5,3 L11.3333333,3 L11.3333333,2 L5,2 C4.08,2 3.33333333,2.74666667 3.33333333,3.66666667 C3.33333333,4.58666667 4.08,5.33333333 5,5.33333333 L12,5.33333333 C13.4733333,5.33333333 14.6666667,4.14 14.6666667,2.66666667 C14.6666667,1.19333333 13.4733333,-3.55271368e-15 12,-3.55271368e-15 L3.66666667,-3.55271368e-15 C1.64,-3.55271368e-15 8.8817842e-16,1.64 8.8817842e-16,3.66666667 C8.8817842e-16,5.69333333 1.64,7.33333333 3.66666667,7.33333333 L11.3333333,7.33333333 L11.3333333,6.33333333 Z" id="path-1"></path>
    </defs>
    <g id="可用的" stroke="none" stroke-width="1" fill="none" fill-rule="evenodd">
        <g id="Icons" transform="translate(-203.000000, -163.000000)">
            <g id="编组-7" transform="translate(203.000000, 163.000000)">
                <circle id="椭圆形" stroke="#979797" fill="#FFFFFF" cx="12" cy="12" r="11.5"></circle>
                <g id="Icon/content/reply" transform="translate(11.764298, 12.235702) rotate(-225.000000) translate(-11.764298, -12.235702) translate(4.430964, 8.569036)">
                    <mask id="mask-2" fill="white">
                        <use xlink:href="#path-1"></use>
                    </mask>
                    <use id="Color" fill="#333333" fill-rule="nonzero" xlink:href="#path-1"></use>
                </g>
            </g>
        </g>
    </g>
</svg>