<?xml version="1.0" encoding="UTF-8"?>
<svg width="24px" height="24px" viewBox="0 0 24 24" version="1.1" xmlns="http://www.w3.org/2000/svg" xmlns:xlink="http://www.w3.org/1999/xlink">
    <title>编组 7备份 4</title>
    <defs>
        <path d="M10,0 L7.33333333,0 L7.33333333,1.33333333 L10,1.33333333 C11.1,1.33333333 12,2.23333333 12,3.33333333 C12,4.43333333 11.1,5.33333333 10,5.33333333 L7.33333333,5.33333333 L7.33333333,6.66666667 L10,6.66666667 C11.84,6.66666667 13.3333333,5.17333333 13.3333333,3.33333333 C13.3333333,1.49333333 11.84,0 10,0 Z M6,5.33333333 L3.33333333,5.33333333 C2.23333333,5.33333333 1.33333333,4.43333333 1.33333333,3.33333333 C1.33333333,2.23333333 2.23333333,1.33333333 3.33333333,1.33333333 L6,1.33333333 L6,0 L3.33333333,0 C1.49333333,0 -3.55271368e-15,1.49333333 -3.55271368e-15,3.33333333 C-3.55271368e-15,5.17333333 1.49333333,6.66666667 3.33333333,6.66666667 L6,6.66666667 L6,5.33333333 Z M4,2.66666667 L9.33333333,2.66666667 L9.33333333,4 L4,4 L4,2.66666667 Z M10,0 L7.33333333,0 L7.33333333,1.33333333 L10,1.33333333 C11.1,1.33333333 12,2.23333333 12,3.33333333 C12,4.43333333 11.1,5.33333333 10,5.33333333 L7.33333333,5.33333333 L7.33333333,6.66666667 L10,6.66666667 C11.84,6.66666667 13.3333333,5.17333333 13.3333333,3.33333333 C13.3333333,1.49333333 11.84,0 10,0 Z M6,5.33333333 L3.33333333,5.33333333 C2.23333333,5.33333333 1.33333333,4.43333333 1.33333333,3.33333333 C1.33333333,2.23333333 2.23333333,1.33333333 3.33333333,1.33333333 L6,1.33333333 L6,0 L3.33333333,0 C1.49333333,0 -3.55271368e-15,1.49333333 -3.55271368e-15,3.33333333 C-3.55271368e-15,5.17333333 1.49333333,6.66666667 3.33333333,6.66666667 L6,6.66666667 L6,5.33333333 Z M4,2.66666667 L9.33333333,2.66666667 L9.33333333,4 L4,4 L4,2.66666667 Z" id="path-1"></path>
    </defs>
    <g id="可用的" stroke="none" stroke-width="1" fill="none" fill-rule="evenodd">
        <g id="Icons" transform="translate(-239.000000, -163.000000)">
            <g id="编组-7备份-4" transform="translate(239.000000, 163.000000)">
                <circle id="椭圆形" stroke="#979797" fill="#FFFFFF" cx="12" cy="12" r="11.5"></circle>
                <g id="Icon/content/reply" transform="translate(12.000000, 12.000000) rotate(-180.000000) translate(-12.000000, -12.000000) translate(5.333333, 8.666667)">
                    <mask id="mask-2" fill="white">
                        <use xlink:href="#path-1"></use>
                    </mask>
                    <use id="Color" fill="#333333" fill-rule="nonzero" xlink:href="#path-1"></use>
                </g>
            </g>
        </g>
    </g>
</svg>